<?xml version="1.0" encoding="UTF-8"?>
<svg xmlns="http://www.w3.org/2000/svg" xmlns:xlink="http://www.w3.org/1999/xlink" viewBox="0 0 339.81 350.64">
  <defs>
    <style>
      .cls-1 {
        fill: url(#linear-gradient-7);
      }

      .cls-2 {
        fill: url(#linear-gradient-5);
      }

      .cls-3 {
        fill: url(#linear-gradient-6);
      }

      .cls-4 {
        fill: url(#linear-gradient-4);
      }

      .cls-5 {
        fill: url(#linear-gradient-3);
      }

      .cls-6 {
        fill: url(#linear-gradient-2);
      }

      .cls-7 {
        fill: #231f20;
      }

      .cls-8 {
        fill: url(#linear-gradient);
      }
    </style>
    <linearGradient id="linear-gradient" x1="157.7" y1="350.64" x2="157.7" y2="0" gradientUnits="userSpaceOnUse">
      <stop offset="0" stop-color="#07111c"/>
      <stop offset="1" stop-color="#272934"/>
    </linearGradient>
    <linearGradient id="linear-gradient-2" x1="109.4" y1="331.06" x2="109.4" y2="286.57" gradientUnits="userSpaceOnUse">
      <stop offset=".26" stop-color="#00091b"/>
      <stop offset="1" stop-color="#221b27" stop-opacity="0"/>
    </linearGradient>
    <linearGradient id="linear-gradient-3" x1="150.51" y1="340.28" x2="150.51" y2="294.2" xlink:href="#linear-gradient-2"/>
    <linearGradient id="linear-gradient-4" x1="285.45" y1="329.37" x2="245.51" y2="260.2" gradientUnits="userSpaceOnUse">
      <stop offset=".26" stop-color="#00091b"/>
      <stop offset="1" stop-color="#221b27" stop-opacity="0"/>
    </linearGradient>
    <linearGradient id="linear-gradient-5" x1="188.13" y1="331.3" x2="188.13" y2="305.62" xlink:href="#linear-gradient-2"/>
    <linearGradient id="linear-gradient-6" x1="41.1" y1="29.34" x2="47.01" y2="39.58" gradientUnits="userSpaceOnUse">
      <stop offset="0" stop-color="#f1f2f2"/>
      <stop offset=".12" stop-color="#d3d5d6" stop-opacity=".87"/>
      <stop offset=".56" stop-color="#666c73" stop-opacity=".41"/>
      <stop offset=".86" stop-color="#212a34" stop-opacity=".11"/>
      <stop offset="1" stop-color="#07111c" stop-opacity="0"/>
    </linearGradient>
    <linearGradient id="linear-gradient-7" x1="229.78" y1="129.22" x2="216.53" y2="152.17" xlink:href="#linear-gradient-6"/>
  </defs>
  <g id="Layer_10" data-name="Layer 10">
    <path class="cls-7" d="M148.95,46.63S94.74,12.42,77.35,21.88,10.12,47.69,9.93,51.08s1.8,15.28,1.8,15.28c0,0-4.38,39.12,47.57,53.8s128.82,198.3,128.82,198.3l13.95,10.58,8.7-4.18,30.39-162.05s-113.39-72-105.91-84.55,13.7-31.62,13.7-31.62Z"/>
  </g>
  <g id="Layer_8" data-name="Layer 8">
    <path class="cls-8" d="M27.12,65.53c11.92-.78,16.64-14.71,16.64-14.71-11.15,7.89-14.07,7.86-21.88,7.76-8.02-.09-11.94-7.5-11.94-7.5C14.03,31.53,77.46,17.43,78.39,17.51c.93.08,1.31-1.34.6-3.92C78.26,11.01,78.21.1,84.85,0c2.7-.05,2.43,4.65,3.14,7.67,1.08,4.4,2.39,7.67,2.39,7.67,0,0,.33-.85,19.26-.8,18.96.06,21.79,13.82,21.79,13.82-.42-.72,14.8-17.46,18.01-18.79,3.2-1.33,3.93,6.53,2.28,14.39-1.63,7.87-13.31,11.17-13.31,11.17,11.39,2.61,23.21,43.47,27.17,52.28,3.25,7.22,15.34,12.34,21.85,16.01,11.85,6.67,23.99,12.2,36.16,18.13,26.82,13.09,44.35,33.99,58.55,58.92,20.66,36.3,27.34,77.54,21.02,118.22-4.52,28.98-24.99,54.68-58.48,51.73-18.54-1.63-32.43-15.39-41.54-30.08-9.9-15.92-18.57-36.91-15.71-55.68,2.8-18.34,21.29-33.24,36.23-43.14-12.05,6.2-24.57,12.82-32.12,23.79-16.73,24.33-5.14,61.81,12.94,82.65-4.81,2.98-10.42,4.8-16.13,5.27-4.15.34-8.61-.14-11.89-2.61-5.9-4.45-5.53-13-4.63-20.16.28-2.18,3.23-13.09.03-13.84-2.24-.53-2.52,2.87-3,4.44-1.67,5.46-2.5,11.21-3.79,16.77-1.55,6.71-4.34,26.15-13.97,27-13.32,1.17-24.59-69.09-28-69.28-.68-.04-1.57,29.99-1.54,33.08.02,2.36,1,29.22-5.21,29.6-6.21.38-11.58-10.03-12.28-11.72-7.24-17.55-21.56-72.05-21.56-72.05,0,0-13.55-39.36-13.63-89.69-.07-41.86-9.41-45.61-12.56-45.69,36.66-3.86,34.4-25.98,34.4-25.98-2.95,9.34-25.74,22.76-47.32,17.69C7.3,102.28,10.61,59.53,10.61,59.53c0,0,4.57,6.82,16.51,6.04v-.04ZM120.11,46.63s-1.68-8.96-8.59-13.36c-9.81-6.25-21.61-.84-21.61-.84,0,0,16.14,7.91,30.2,14.18v.02Z"/>
  </g>
  <g id="Layer_9" data-name="Layer 9">
    <path class="cls-6" d="M98.79,293.95c-.44-2.15,1.74-3.85,3.75-2.95,3.91,1.76,9.46,2.59,14-3.14,7.4-9.34.99,34.79.1,40.74-.08.54-.32,1.04-.69,1.43-1.99,2.07-8.78,5.07-17.15-36.08Z"/>
    <path class="cls-5" d="M135.28,300.67c-.44-2.15,1.74-3.85,3.75-2.95,3.91,1.76,18.52,4.78,22.62-1.27,7.64-11.27,3.97,22.45-4.9,39.36-.33.62-1.07,2.81-3.22,4.02-2.5,1.41-9.88,1.99-18.25-39.16Z"/>
    <path class="cls-4" d="M204.11,302.64c15.31-.56,83.99-6.6,91.06-70.08.27-2.44,3.76-2.57,4.18-.15,5.57,31.77,10.55,96.6-38.31,108.6-36.55,8.97-54.31-25.08-58.78-35.42-.59-1.36.37-2.89,1.86-2.95Z"/>
    <path class="cls-2" d="M178.23,306.38c2.43,3.15,6.56,7.5,10.61,7.05.72-.08,1.43.15,1.88.71,2.56,3.14,10.72,13.03,12.53,13.82,3.03,1.33-39.74,14.07-28.51-20.95.49-1.53,2.51-1.9,3.49-.63Z"/>
    <path class="cls-3" d="M20.63,45.99c3.24-6.46,13.79-18.43,47.83-21.12,1.25-.1,1.6,1.67.41,2.06-12.64,4.06-36.56,12.4-46.64,20.36-.88.7-2.1-.29-1.6-1.29Z"/>
    <path class="cls-1" d="M191.4,131.98c-3.67-.19-18.74-5.38-22.02-7.05-7.73-3.94-9.73-17.29-.66-19.16,12.88-2.64,88.84,25.76,108.66,75.3,0,0-45.91-47.03-85.98-49.1Z"/>
  </g>
</svg>