<svg width="550" height="821" viewBox="0 0 550 821" fill="none" xmlns="http://www.w3.org/2000/svg">
<path d="M103.503 163.067C106.766 169.116 108.457 175.573 109 181C106.412 175.216 104.613 169.217 103.503 163.067C94.7402 146.82 74.6399 133.512 35 151C-19.4 175 3.00001 222.333 21 243C36.4156 253.109 46.8498 276.465 72.7836 271.608C83.9865 265.583 95.1762 260.875 103 257C90.9072 265.638 81.0567 270.058 72.7836 271.608C42.4611 287.914 12.0411 313.86 48 359C95 418 157 364 157 334C165.273 339.577 175.568 345.402 187.578 350.772C189.235 351.514 190.926 352.246 192.648 352.968C242.956 374.063 320.449 386.194 405 343.322C410.637 340.464 416.306 337.361 422 334C434.667 358.667 469.2 398.2 506 359C542.8 319.8 532 274.667 522 257C516.831 252.154 507.561 246.369 496.282 244.424C486.392 246.355 476.502 247.581 468 248.745C456.667 257.078 428.8 281 456 257C470.019 244.63 484.286 242.355 496.282 244.424C523.229 239.163 550.171 228.676 549 200C547 151 540 129 493 140C465.552 146.424 456.684 154.66 455.194 160.584C455.485 162.468 455.754 164.276 456 166C455.1 164.65 454.642 162.775 455.194 160.584C448.39 116.566 429.385 30.9193 401 1C379.333 20.3333 330 84 339 109C313.333 98.6667 279 94 239 109C238.667 80.6667 200.6 19.4 175 1C144.838 32.3687 92.9505 104.567 103.503 163.067Z" fill="#FFA581"/>
<path d="M187.578 350.772C174.511 346.094 159.83 348.696 157 377L168 391L148 398C150.641 401.912 187.578 449.554 157 410.84C186.954 452.186 242.694 516.962 283 522C323.732 527.091 385.186 456.517 418.056 410.84C421.339 406.278 424.337 401.965 427 398L405 391L422 377C426 366.882 428.2 345.98 405 343.322C320.449 386.194 242.956 374.063 192.648 352.968C190.926 352.246 189.235 351.514 187.578 350.772Z" fill="#B3FCFF"/>
<path d="M283 522C242.694 516.962 186.954 452.186 157 410.84C102.333 522.893 65.5 776.1 109.5 802.5C164.5 835.5 199.861 814.001 237.5 802.5C255.5 797 243 734.5 266 728C289 721.5 283 728 300 728C326.196 728 322 797 337 802.5C362.527 811.86 447 834 473.5 805.5C498.494 778.62 452.704 527.06 418.056 410.84C385.186 456.517 323.732 527.091 283 522C288.667 530.667 294.5 560 301 584C303.438 593 275.5 596 266 584L283 522Z" fill="#FFA581"/>
<path d="M283 522L266 584C275.5 596 303.438 593 301 584C294.5 560 288.667 530.667 283 522Z" fill="#FFFF9F"/>
<path d="M103.503 163.067C106.766 169.116 108.457 175.573 109 181C106.412 175.216 104.613 169.217 103.503 163.067ZM103.503 163.067C94.7402 146.82 74.6399 133.512 35 151C-19.4 175 3.00001 222.333 21 243C36.4156 253.109 46.8498 276.465 72.7836 271.608M103.503 163.067C92.9505 104.567 144.838 32.3687 175 1C200.6 19.4 238.667 80.6667 239 109C279 94 313.333 98.6667 339 109C330 84 379.333 20.3333 401 1C429.385 30.9193 448.39 116.566 455.194 160.584M72.7836 271.608C83.9865 265.583 95.1762 260.875 103 257C90.9072 265.638 81.0567 270.058 72.7836 271.608ZM72.7836 271.608C42.4611 287.914 12.0411 313.86 48 359C95 418 157 364 157 334C165.273 339.577 175.568 345.402 187.578 350.772M496.282 244.424C507.561 246.369 516.831 252.154 522 257C532 274.667 542.8 319.8 506 359C469.2 398.2 434.667 358.667 422 334C416.306 337.361 410.637 340.464 405 343.322M496.282 244.424C486.392 246.355 476.502 247.581 468 248.745C456.667 257.078 428.8 281 456 257C470.019 244.63 484.286 242.355 496.282 244.424ZM496.282 244.424C523.229 239.163 550.171 228.676 549 200C547 151 540 129 493 140C465.552 146.424 456.684 154.66 455.194 160.584M455.194 160.584C455.485 162.468 455.754 164.276 456 166C455.1 164.65 454.642 162.775 455.194 160.584ZM202 359C199.349 356.88 196.133 354.733 192.648 352.968M283 522C242.694 516.962 186.954 452.186 157 410.84M283 522C323.732 527.092 385.186 456.517 418.056 410.84M283 522L266 584C275.5 596 303.438 593 301 584C294.5 560 288.667 530.667 283 522ZM405 343.322C428.2 345.98 426 366.882 422 377L405 391L427 398C424.337 401.965 421.339 406.278 418.056 410.84M405 343.322C320.449 386.194 242.956 374.063 192.648 352.968M187.578 350.772C174.511 346.094 159.83 348.696 157 377L168 391L148 398C150.641 401.912 187.578 449.554 157 410.84M187.578 350.772C189.235 351.514 190.926 352.246 192.648 352.968M187.578 350.772C189.306 351.391 191.007 352.137 192.648 352.968M157 410.84C102.333 522.893 65.5 776.1 109.5 802.5C164.5 835.5 199.861 814.001 237.5 802.5C255.5 797 243 734.5 266 728C289 721.5 283 728 300 728C326.196 728 322 797 337 802.5C362.527 811.86 447 834 473.5 805.5C498.494 778.62 452.704 527.06 418.056 410.84" stroke="black"/>
<path d="M261.5 224.5C261.5 260.457 235.701 289.5 204 289.5C172.299 289.5 146.5 260.457 146.5 224.5C146.5 188.543 172.299 159.5 204 159.5C235.701 159.5 261.5 188.543 261.5 224.5Z" fill="white" stroke="black"/>
<ellipse cx="212" cy="224.5" rx="44" ry="51.5" fill="#924E4E"/>
<path d="M432.5 224.5C432.5 260.457 406.701 289.5 375 289.5C343.299 289.5 317.5 260.457 317.5 224.5C317.5 188.543 343.299 159.5 375 159.5C406.701 159.5 432.5 188.543 432.5 224.5Z" fill="white" stroke="black"/>
<ellipse cx="367" cy="224.5" rx="44" ry="51.5" fill="#924E4E"/>
<ellipse cx="367" cy="248" rx="30" ry="23" fill="#BE5353"/>
<ellipse cx="212" cy="248" rx="30" ry="23" fill="#BE5353"/>
<path d="M356.5 282C356.5 291.665 349.092 300.533 336.849 307.014C324.629 313.483 307.713 317.5 289 317.5C270.287 317.5 253.371 313.483 241.151 307.014C228.908 300.533 221.5 291.665 221.5 282C221.5 272.335 228.908 263.467 241.151 256.986C253.371 250.517 270.287 246.5 289 246.5C307.713 246.5 324.629 250.517 336.849 256.986C349.092 263.467 356.5 272.335 356.5 282Z" fill="#FF8787" stroke="black"/>
<ellipse cx="299" cy="271.5" rx="32" ry="18.5" fill="#FFC3B9"/>
</svg>
