<?xml version="1.0" encoding="UTF-8"?>
<svg xmlns="http://www.w3.org/2000/svg" version="1.1" viewBox="0 0 1920 585">
  <defs>
    <style>
      .cls-1 {
        fill: #fffffb;
      }

      .cls-2 {
        fill: #b0ffc1;
      }

      .cls-3 {
        fill: #baffef;
      }

      .cls-4 {
        fill: #f1ffc8;
      }
    </style>
  </defs>
  <!-- Generator: Adobe Illustrator 28.6.0, SVG Export Plug-In . SVG Version: 1.2.0 Build 709)  -->
  <g>
    <g id="Layer_1">
      <path class="cls-3" d="M1920,585H0v-295c-3.74-86.79,21.73-132.07,44-157,151.56-169.72,592.28,112.71,1234,174,269.62,25.75,494.25,4.78,642-17v295Z"/>
      <path class="cls-2" d="M1922,582H2v-295c51.77,16.79,133.34,39.46,235,51,469.65,53.29,704.5-206.56,1120-208,134.43-.47,328.5,25.97,565,157v295Z"/>
      <path class="cls-4" d="M1920,582H0v-295c45.17-16.41,121.37-41.13,218-57,427.76-70.24,668.56,129.44,1076,156,140.89,9.18,355.25,1.16,626-99v295Z"/>
      <path class="cls-1" d="M1922,585H2v-295c53.88,12.33,135.47,30.56,235,51,541.71,111.27,812.56,166.9,1106,132,137.05-16.3,340.19-58.82,579-183v295Z"/>
    </g>
  </g>
</svg>